<?xml version="1.0" encoding="UTF-8"?>
<svg version="1.1" xmlns="http://www.w3.org/2000/svg" width="1017" height="582">
<path d="M0 0 C1.68182185 0.25363923 1.68182185 0.25363923 3.3976199 0.51240247 C7.15025086 1.07981891 10.90153284 1.65569966 14.65287781 2.23155212 C17.35035762 2.64187859 20.04810865 3.05040942 22.74584961 3.45901489 C28.57160239 4.34235594 34.39667906 5.23004645 40.22132301 6.12066841 C48.75043314 7.42480038 57.28056192 8.72216833 65.8109354 10.01800769 C79.79508875 12.14250444 93.77843411 14.27227177 107.76127625 16.40538025 C125.98373456 19.1852328 144.20708536 21.95919178 162.43074822 24.73113561 C167.29206625 25.47059221 172.15335337 26.21025185 177.01463127 26.94997215 C177.81417572 27.07163535 178.61372016 27.19329855 179.43749323 27.31864851 C181.04971458 27.5639749 182.66193578 27.8093023 184.27415682 28.05463071 C194.65706355 29.63457573 205.03998398 31.21443037 215.42299271 32.79370499 C224.02094323 34.10148299 232.61883913 35.40961954 241.21667156 36.71817371 C242.74479952 36.950746 244.27292935 37.18330607 245.80106106 37.41585377 C264.66521385 40.28661288 283.52743718 43.16938302 302.38646793 46.07361317 C310.64231969 47.34489391 318.89900748 48.61069965 327.15596622 49.87476891 C333.48689323 50.84449405 339.81658669 51.82177555 346.14537001 52.80538893 C349.94140886 53.39350676 353.73854552 53.97426606 357.53604341 54.55288053 C359.24981546 54.81554332 360.96312506 55.0812468 362.67588592 55.35042453 C370.90912249 56.64308491 378.89038511 57.73914008 387.25868702 57.36494541 C392.29111847 57.50043055 395.92785678 59.72947992 399.4797821 63.14927673 C403.95584263 68.14384072 405.12226045 72.1061012 405.0344696 78.79771423 C404.26949677 84.72405554 401.0852623 88.24418482 396.66337585 92.01646423 C392.2099017 95.09333552 387.51884868 95.867967 382.25712585 96.74302673 C381.33480164 96.91124939 380.41247742 97.07947205 379.46220398 97.25279236 C377.20868933 97.66146082 374.95361887 98.05354828 372.69462585 98.43052673 C373.32554138 98.7282196 373.95645691 99.02591248 374.60649109 99.33262634 C377.44941937 100.67555003 380.29078736 102.02174288 383.13212585 103.36802673 C384.12534851 103.83660095 385.11857117 104.30517517 386.14189148 104.78794861 C387.08612976 105.23589783 388.03036804 105.68384705 389.0032196 106.14537048 C390.31504211 106.76593323 390.31504211 106.76593323 391.65336609 107.39903259 C393.69462585 108.43052673 393.69462585 108.43052673 394.69462585 109.43052673 C396.58684046 109.42630304 398.47936153 109.41504803 400.37089539 109.36412048 C416.70461361 108.95225955 416.70461361 108.95225955 422.6438446 114.12974548 C428.47148743 120.34834129 431.37369024 126.33014915 432.75712585 134.68052673 C434.07806047 140.96037982 436.91405282 144.38936522 441.29350281 148.78477478 C450.59008322 158.21872053 461.69462585 175.81167078 461.69462585 189.43052673 C462.28243835 189.6896283 462.87025085 189.94872986 463.47587585 190.21568298 C470.35437597 193.981904 473.58420928 200.65531868 475.96806335 207.81724548 C478.81574723 218.05972134 479.23070564 229.61525511 474.69462585 239.43052673 C474.12651184 240.20807312 474.12651184 240.20807312 473.54692078 241.00132751 C468.95623664 247.37958724 468.36206187 253.89399197 467.38212585 261.55552673 C465.7975078 272.83273087 463.59045667 283.76237865 460.56962585 294.74302673 C460.23277771 295.96844177 459.89592957 297.19385681 459.5488739 298.45640564 C457.09646955 307.21421273 457.09646955 307.21421273 455.73930359 311.3221283 C453.66882249 317.40477747 453.66882249 317.40477747 455.00712585 323.55552673 C458.57734655 334.5300747 457.93935739 347.09441839 452.69462585 357.43052673 C449.40063342 362.3168757 446.40923101 365.63837246 440.69462585 367.43052673 C438.76559453 367.70647453 436.82572265 367.91502576 434.88212585 368.05552673 C433.41839539 368.16767517 433.41839539 368.16767517 431.9250946 368.28208923 C431.18903992 368.33107361 430.45298523 368.38005798 429.69462585 368.43052673 C429.45872742 369.11888611 429.22282898 369.80724548 428.9797821 370.51646423 C427.43576768 374.01748174 425.37576229 376.98103969 423.13212585 380.05552673 C422.46286072 380.97857605 422.46286072 380.97857605 421.78007507 381.92027283 C406.58188782 402.70674147 389.70641286 420.57632766 363.0657196 425.09458923 C362.28325867 425.20544861 361.50079773 425.31630798 360.69462585 425.43052673 C359.94310242 425.54138611 359.19157898 425.65224548 358.4172821 425.76646423 C348.2155327 427.02258646 337.78981511 426.75224535 327.56962585 425.86802673 C321.70578754 425.38988816 316.13453331 425.67569714 310.28056335 426.14927673 C291.20632304 427.64529558 291.20632304 427.64529558 284.5266571 422.40318298 C281.87141447 419.54412642 280.25100419 416.28923469 278.4016571 412.87583923 C275.82478212 409.18448056 272.4920514 407.43640805 268.6438446 405.21568298 C262.60366368 401.55957347 256.98330042 396.92824559 252.2141571 391.72349548 C249.37898342 389.14326765 248.00464925 388.74543689 244.25712585 388.36802673 C237.8648725 387.4327843 234.06800502 385.14395856 229.81962585 380.30552673 C227.69462585 377.43052673 227.69462585 377.43052673 227.69462585 375.43052673 C224.72462585 376.09052673 221.75462585 376.75052673 218.69462585 377.43052673 C218.64033307 380.13913338 218.60081374 382.84663574 218.56962585 385.55552673 C218.55286804 386.31607361 218.53611023 387.07662048 218.5188446 387.86021423 C218.47871557 392.5151825 219.07973978 396.01529513 220.69462585 400.43052673 C222.79668575 413.2009357 221.48334086 425.48951001 214.24931335 436.43052673 C212.32215855 438.90968065 210.37814603 440.79059774 207.69462585 442.43052673 C207.03462585 442.43052673 206.37462585 442.43052673 205.69462585 442.43052673 C205.54573914 443.4321283 205.54573914 443.4321283 205.3938446 444.45396423 C204.51729672 448.1854139 203.05836067 451.56742302 201.50712585 455.05552673 C201.19831482 455.76555847 200.88950378 456.47559021 200.57133484 457.20713806 C198.72473312 461.37863543 196.66074144 465.23218153 194.25712585 469.11802673 C191.35150283 474.24109891 191.3913298 478.24301959 191.6594696 484.03208923 C191.77388612 495.09235263 188.27011973 504.59448641 181.3469696 513.08287048 C177.25385884 516.84853239 172.6937464 516.76047518 167.38212585 517.11802673 C161.24276797 517.57471663 157.75516859 518.36525341 153.31962585 522.99302673 C151.77773377 524.80533497 150.23606638 526.61783441 148.69462585 528.43052673 C145.15242259 531.58805634 141.42746348 534.50222305 137.69462585 537.43052673 C137.17465027 537.843349 136.65467468 538.25617126 136.11894226 538.6815033 C130.51601914 543.12676982 124.96606523 547.34164183 118.75712585 550.93052673 C113.91176618 553.90206766 111.8354537 556.95446576 109.2297821 561.92271423 C106.14753535 566.95783488 101.33110793 571.55169938 95.69462585 573.43052673 C88.70675032 574.10593478 82.15501501 573.05011745 75.30937195 571.71324158 C63.97624425 569.60925267 52.41369215 568.80015488 40.94462585 567.74986267 C37.59384313 567.4206241 34.2641664 567.00407986 30.93486023 566.50328064 C28.46066942 566.3424163 28.46066942 566.3424163 25.14701843 567.09312439 C19.54937811 567.84095654 14.67871655 566.10172068 9.3625946 564.47740173 C8.27560776 564.15882202 7.18862091 563.84024231 6.06869507 563.51200867 C3.76947445 562.83713378 1.47209836 562.15594668 -0.82350159 561.46885681 C-4.21755813 560.45671437 -7.61768462 559.46920753 -11.02168274 558.49107361 C-16.56972684 556.89648813 -22.11182245 555.2825593 -27.65132141 553.65855408 C-29.91228816 552.99679965 -32.17403153 552.33769382 -34.43647766 551.68101501 C-37.77333149 550.71244235 -41.107928 549.73643491 -44.4420929 548.75865173 C-45.9513459 548.32265656 -45.9513459 548.32265656 -47.49108887 547.87785339 C-55.47926992 545.51949958 -61.32499942 543.48605759 -66.30537415 536.43052673 C-67.81053149 532.96866483 -68.30384036 530.5035349 -68.38349915 526.71177673 C-69.06786463 521.10484976 -72.77200402 518.40560438 -76.80537415 514.80552673 C-91.55346121 500.82524657 -100.488562 483.14654662 -105.30537415 463.43052673 C-105.30537415 462.44052673 -105.30537415 461.45052673 -105.30537415 460.43052673 C-106.14068665 460.09021423 -106.14068665 460.09021423 -106.99287415 459.74302673 C-114.1063038 455.70567477 -116.92741635 449.28880857 -119.55537415 441.93052673 C-121.95319547 430.83515353 -121.02996303 418.74660156 -116.30537415 408.43052673 C-114.8092804 406.51646423 -114.8092804 406.51646423 -113.24287415 404.80552673 C-107.98165711 398.70517887 -108.24074964 389.11113687 -107.30537415 381.43052673 C-108.59129456 381.19503113 -109.87721497 380.95953552 -111.20210266 380.71690369 C-126.65197699 377.83621838 -142.02472063 374.62269991 -157.3952179 371.34849548 C-158.47408894 371.11875156 -159.55295998 370.88900764 -160.66452408 370.65230179 C-169.68469704 368.73052763 -178.70358036 366.80272782 -187.72224426 364.87388611 C-194.50328992 363.42373774 -201.28483592 361.97597698 -208.06712532 360.53165627 C-211.22469483 359.85820472 -214.38148602 359.1811859 -217.53826904 358.50405884 C-219.45530812 358.09549197 -221.37238468 357.6871009 -223.289505 357.27891541 C-224.60064018 356.99614998 -224.60064018 356.99614998 -225.93826294 356.70767212 C-226.73781403 356.53820068 -227.53736511 356.36872925 -228.36114502 356.19412231 C-229.0546704 356.04575519 -229.74819578 355.89738806 -230.46273708 355.74452496 C-232.48673566 355.34653403 -232.48673566 355.34653403 -235.30537415 355.43052673 C-235.76685852 356.39990173 -236.2283429 357.36927673 -236.70381165 358.36802673 C-244.14837693 373.77131155 -252.60708553 387.88093755 -264.30537415 400.43052673 C-264.90124329 401.070224 -265.49711243 401.70992126 -266.11103821 402.3690033 C-293.47305616 431.40028518 -329.19535883 449.05000856 -369.33662415 450.61802673 C-386.62724897 450.89032004 -404.97878063 448.97459973 -420.96943665 442.05747986 C-430.54694827 437.94860913 -439.59065784 437.71287078 -449.9342804 437.63365173 C-456.81161654 437.51779525 -462.27270631 436.46319457 -467.30537415 431.43052673 C-471.47808763 426.60702307 -472.85928714 421.50464381 -474.18037415 415.36802673 C-475.43316999 409.74445027 -476.62246198 406.03766619 -481.16474915 402.34458923 C-484.22618943 399.60717 -486.61284177 396.4235868 -489.11787415 393.18052673 C-489.59813049 392.56483826 -490.07838684 391.94914978 -490.57319641 391.31480408 C-492.57413215 388.73512633 -494.49377783 386.14792121 -496.30537415 383.43052673 C-499.41340434 382.80876166 -499.41340434 382.80876166 -502.99287415 382.55552673 C-510.19494177 381.64238114 -514.12249777 380.28855871 -518.7233429 374.71177673 C-525.64000752 364.81344144 -526.23723104 353.09643138 -525.30537415 341.43052673 C-524.63790199 338.55273694 -523.79594863 335.78856939 -522.9186554 332.96958923 C-521.80029727 328.33944414 -522.57608426 324.08383161 -523.30537415 319.43052673 C-523.67297312 317.01570868 -524.03844957 314.6005744 -524.40376282 312.18540955 C-524.67183287 310.42999881 -524.94544946 308.67542627 -525.2245636 306.92173767 C-525.99131997 302.00599278 -526.45985233 297.22364033 -526.61787415 292.24302673 C-526.94372085 286.80069349 -528.57670813 283.93732314 -531.80537415 279.64537048 C-537.99807449 270.50146138 -537.61043812 257.28764253 -535.6139679 246.79771423 C-533.32485859 238.54159614 -530.09628197 231.46134245 -522.55537415 226.93052673 C-519.30537415 225.43052673 -519.30537415 225.43052673 -517.30537415 225.43052673 C-517.15479553 224.83626892 -517.00421692 224.24201111 -516.84907532 223.62974548 C-515.23751932 217.74833786 -512.99435864 212.65837912 -510.12983704 207.28746033 C-504.79001662 197.19758814 -502.3885452 189.79099747 -503.15693665 178.45787048 C-503.73897962 169.24802514 -499.89877638 161.28953902 -494.28193665 154.23521423 C-488.58207837 149.03099581 -483.33982725 149.18060695 -476.05537415 149.24302673 C-468.17531835 149.08749932 -463.40761693 148.47677176 -457.64131165 142.70005798 C-454.81806754 139.95707333 -451.79715745 138.06189469 -448.43037415 136.05552673 C-447.36045227 135.40841736 -446.2905304 134.76130798 -445.18818665 134.09458923 C-442.30537415 132.43052673 -442.30537415 132.43052673 -440.00068665 131.52427673 C-438.06246851 130.52021493 -438.06246851 130.52021493 -437.47724915 128.04771423 C-437.3380304 127.14279236 -437.19881165 126.23787048 -437.05537415 125.30552673 C-436.9058429 124.39544861 -436.75631165 123.48537048 -436.60224915 122.54771423 C-436.5042804 121.84904236 -436.40631165 121.15037048 -436.30537415 120.43052673 C-437.50033508 120.46533142 -438.69529602 120.50013611 -439.9264679 120.53599548 C-460.54164823 120.96498189 -460.54164823 120.96498189 -468.8639679 113.08677673 C-473.04371084 108.28403687 -473.87309997 103.06881088 -473.64912415 96.91880798 C-472.72076546 90.19875707 -469.28939331 85.89753105 -464.1842804 81.65708923 C-458.9888922 78.26550525 -454.42029867 78.22439311 -448.42085266 78.15367126 C-434.59282598 77.71334671 -421.19375133 74.94287686 -407.65629911 72.28915644 C-403.86320819 71.54912611 -400.06678203 70.82657574 -396.27073669 70.10188293 C-389.70141431 68.84548985 -383.13411294 67.57897519 -376.56809998 66.30540466 C-366.08617796 64.27252166 -355.60028057 62.26063291 -345.11372375 60.2518158 C-341.49982516 59.55930492 -337.88595384 58.86665181 -334.27209473 58.17393494 C-333.36927798 58.00089262 -332.46646124 57.82785029 -331.53628641 57.64956427 C-325.05276662 56.4065878 -318.56980322 55.16073535 -312.08706665 53.91368103 C-286.30628191 48.95514214 -260.51674 44.04456634 -234.71943665 39.17271423 C-233.83346149 39.00537804 -232.94748633 38.83804185 -232.03466344 38.66563487 C-221.42648667 36.66212534 -210.81797546 34.66039084 -200.20929307 32.6595605 C-184.81008844 29.75518316 -169.41140995 26.84801815 -154.01292539 23.93982577 C-151.55639691 23.47590176 -149.09985365 23.01205612 -146.64330864 22.54821968 C-126.67698656 18.77795273 -106.71438222 14.9891018 -86.75744438 11.16944504 C-83.23755465 10.49598523 -79.71749325 9.82343125 -76.19735718 9.15126038 C-75.08549136 8.93893579 -73.97362555 8.72661121 -72.82806683 8.50785255 C-70.65772039 8.09341574 -68.48736699 7.67901537 -66.31700611 7.26465416 C-60.28852997 6.11303944 -54.26134463 4.95496502 -48.23515797 3.79143238 C-44.67402337 3.105285 -41.1117937 2.42497063 -37.54921913 1.74634361 C-35.9508791 1.44054506 -34.3530225 1.13220579 -32.75572777 0.82099342 C-30.61562615 0.40422471 -28.47398995 -0.00350808 -26.33174133 -0.40907288 C-25.15649902 -0.63533859 -23.98125671 -0.86160431 -22.770401 -1.09472656 C-14.96552285 -2.16408052 -7.72576458 -1.1986168 0 0 Z " fill="#000000" transform="translate(537.3053741455078,5.5694732666015625)"/>
</svg>
